<?xml version="1.0" encoding="UTF-8" standalone="no"?>
<!DOCTYPE svg PUBLIC "-//W3C//DTD SVG 1.1//EN"
 "http://www.w3.org/Graphics/SVG/1.1/DTD/svg11.dtd">
<!-- Generated by graphviz version 8.0.5 (0)
 -->
<!-- Title: F Pages: 1 -->
<svg width="348pt" height="136pt"
 viewBox="0.00 0.00 348.25 136.00" xmlns="http://www.w3.org/2000/svg" xmlns:xlink="http://www.w3.org/1999/xlink">
<g id="graph0" class="graph" transform="scale(1 1) rotate(0) translate(4 132)">
<title>F</title>
<polygon fill="white" stroke="none" points="-4,4 -4,-132 344.25,-132 344.25,4 -4,4"/>
<g id="clust1" class="cluster">
<title>cluster_A</title>
<polygon fill="none" stroke="black" points="99,-49 99,-120 332.25,-120 332.25,-49 99,-49"/>
<text text-anchor="middle" x="215.62" y="-102.7" font-family="Times,serif" font-size="14.00">Kernelspace</text>
</g>
<g id="clust2" class="cluster">
<title>cluster_B</title>
<polygon fill="none" stroke="black" points="8,-8 8,-118 79,-118 79,-8 8,-8"/>
<text text-anchor="middle" x="43.75" y="-100.7" font-family="Times,serif" font-size="14.00">Userspace</text>
</g>
<!-- p1 -->
<g id="node1" class="node">
<title>p1</title>
<polygon fill="none" stroke="black" points="115,-60.75 115,-83.25 185.5,-83.25 185.5,-60.75 115,-60.75"/>
<text text-anchor="start" x="118" y="-66.95" font-family="Times,serif" font-size="14.00">program P1</text>
<polygon fill="#bfefff" stroke="none" points="185.5,-60.75 185.5,-83.25 198.25,-83.25 198.25,-60.75 185.5,-60.75"/>
<polygon fill="none" stroke="black" points="185.5,-60.75 185.5,-83.25 198.25,-83.25 198.25,-60.75 185.5,-60.75"/>
<text text-anchor="start" x="188.5" y="-66.95" font-family="Times,serif" font-size="14.00">2</text>
</g>
<!-- m1 -->
<g id="node2" class="node">
<title>m1</title>
<polygon fill="none" stroke="black" points="250.25,-60.75 250.25,-83.25 303.5,-83.25 303.5,-60.75 250.25,-60.75"/>
<text text-anchor="start" x="253.25" y="-66.95" font-family="Times,serif" font-size="14.00">map M1</text>
<polygon fill="#bfefff" stroke="none" points="303.5,-60.75 303.5,-83.25 316.25,-83.25 316.25,-60.75 303.5,-60.75"/>
<polygon fill="none" stroke="black" points="303.5,-60.75 303.5,-83.25 316.25,-83.25 316.25,-60.75 303.5,-60.75"/>
<text text-anchor="start" x="306.5" y="-66.95" font-family="Times,serif" font-size="14.00">2</text>
</g>
<!-- p1&#45;&gt;m1 -->
<g id="edge1" class="edge">
<title>p1&#45;&gt;m1</title>
<path fill="none" stroke="black" d="M206.17,-65.4C214.53,-65.22 223.24,-65.2 231.66,-65.36"/>
<polygon fill="black" stroke="black" points="231.4,-68.88 241.5,-65.66 231.6,-61.88 231.4,-68.88"/>
</g>
<!-- m1&#45;&gt;p1 -->
<g id="edge2" class="edge">
<title>m1&#45;&gt;p1</title>
<path fill="none" stroke="black" d="M242.5,-78.34C234.37,-78.65 225.66,-78.78 217.02,-78.74"/>
<polygon fill="black" stroke="black" points="217.21,-75.23 207.17,-78.6 217.12,-82.23 217.21,-75.23"/>
</g>
<!-- fd1 -->
<g id="node3" class="node">
<title>fd1</title>
<polygon fill="none" stroke="black" points="16,-60.75 16,-85.25 70,-85.25 70,-60.75 16,-60.75"/>
<text text-anchor="middle" x="43" y="-67.95" font-family="Times,serif" font-size="14.00">fd 1</text>
</g>
<!-- fd1&#45;&gt;p1 -->
<g id="edge3" class="edge">
<title>fd1&#45;&gt;p1</title>
<path fill="none" stroke="black" d="M69.89,-72.77C77.85,-72.7 86.97,-72.62 96.21,-72.53"/>
<polygon fill="black" stroke="black" points="96.1,-76.02 106.07,-72.43 96.04,-69.02 96.1,-76.02"/>
</g>
<!-- fd2 -->
<g id="node4" class="node">
<title>fd2</title>
<polygon fill="none" stroke="black" points="16,-16.75 16,-41.25 70,-41.25 70,-16.75 16,-16.75"/>
<text text-anchor="middle" x="43" y="-23.95" font-family="Times,serif" font-size="14.00">fd 2</text>
</g>
<!-- fd2&#45;&gt;m1 -->
<g id="edge4" class="edge">
<title>fd2&#45;&gt;m1</title>
<path fill="none" stroke="black" d="M69.82,-30.51C102.04,-32.74 158.69,-37.8 206.25,-48 214.71,-49.81 223.58,-52.18 232.15,-54.71"/>
<polygon fill="black" stroke="black" points="230.81,-58.27 241.4,-57.86 232.87,-51.58 230.81,-58.27"/>
</g>
</g>
</svg>
