<?xml version="1.0" encoding="UTF-8" standalone="no"?>
<!DOCTYPE svg PUBLIC "-//W3C//DTD SVG 1.1//EN"
 "http://www.w3.org/Graphics/SVG/1.1/DTD/svg11.dtd">
<!-- Generated by graphviz version 8.0.5 (0)
 -->
<!-- Title: F Pages: 1 -->
<svg width="140pt" height="162pt"
 viewBox="0.00 0.00 140.00 161.50" xmlns="http://www.w3.org/2000/svg" xmlns:xlink="http://www.w3.org/1999/xlink">
<g id="graph0" class="graph" transform="scale(1 1) rotate(0) translate(4 157.5)">
<title>F</title>
<polygon fill="white" stroke="none" points="-4,4 -4,-157.5 136,-157.5 136,4 -4,4"/>
<g id="clust1" class="cluster">
<title>cluster_A</title>
<polygon fill="none" stroke="black" points="8,-8 8,-145.5 124,-145.5 124,-8 8,-8"/>
<text text-anchor="middle" x="66" y="-128.2" font-family="Times,serif" font-size="14.00">Kernelspace</text>
</g>
<!-- p1 -->
<g id="node1" class="node">
<title>p1</title>
<polygon fill="none" stroke="black" points="24.38,-86.5 24.38,-109 94.88,-109 94.88,-86.5 24.38,-86.5"/>
<text text-anchor="start" x="27.38" y="-92.7" font-family="Times,serif" font-size="14.00">program P1</text>
<polygon fill="lightcoral" stroke="none" points="94.88,-86.5 94.88,-109 107.62,-109 107.62,-86.5 94.88,-86.5"/>
<polygon fill="none" stroke="black" points="94.88,-86.5 94.88,-109 107.62,-109 107.62,-86.5 94.88,-86.5"/>
<text text-anchor="start" x="97.88" y="-92.7" font-family="Times,serif" font-size="14.00">1</text>
</g>
<!-- m1 -->
<g id="node2" class="node">
<title>m1</title>
<polygon fill="none" stroke="black" points="33,-20 33,-42.5 86.25,-42.5 86.25,-20 33,-20"/>
<text text-anchor="start" x="36" y="-26.2" font-family="Times,serif" font-size="14.00">map M1</text>
<polygon fill="lightcoral" stroke="none" points="86.25,-20 86.25,-42.5 99,-42.5 99,-20 86.25,-20"/>
<polygon fill="none" stroke="black" points="86.25,-20 86.25,-42.5 99,-42.5 99,-20 86.25,-20"/>
<text text-anchor="start" x="89.25" y="-26.2" font-family="Times,serif" font-size="14.00">1</text>
</g>
<!-- p1&#45;&gt;m1 -->
<g id="edge1" class="edge">
<title>p1&#45;&gt;m1</title>
<path fill="none" stroke="black" d="M60.32,-82.75C59.33,-75.23 59.02,-65.73 59.41,-57.01"/>
<polygon fill="black" stroke="black" points="62.97,-57.48 60.33,-47.22 56,-56.89 62.97,-57.48"/>
</g>
<!-- m1&#45;&gt;p1 -->
<g id="edge2" class="edge">
<title>m1&#45;&gt;p1</title>
<path fill="none" stroke="black" d="M71.67,-46.22C72.67,-53.74 72.97,-63.23 72.59,-71.96"/>
<polygon fill="black" stroke="black" points="69.03,-71.5 71.68,-81.75 76,-72.08 69.03,-71.5"/>
</g>
</g>
</svg>
