<?xml version="1.0" encoding="UTF-8" standalone="no"?>
<!DOCTYPE svg PUBLIC "-//W3C//DTD SVG 1.1//EN"
 "http://www.w3.org/Graphics/SVG/1.1/DTD/svg11.dtd">
<!-- Generated by graphviz version 8.0.5 (0)
 -->
<!-- Title: F Pages: 1 -->
<svg width="368pt" height="313pt"
 viewBox="0.00 0.00 368.00 313.00" xmlns="http://www.w3.org/2000/svg" xmlns:xlink="http://www.w3.org/1999/xlink">
<g id="graph0" class="graph" transform="scale(1 1) rotate(0) translate(4 309)">
<title>F</title>
<polygon fill="white" stroke="none" points="-4,4 -4,-309 364,-309 364,4 -4,4"/>
<g id="clust1" class="cluster">
<title>cluster_A</title>
<polygon fill="none" stroke="black" points="8,-8 8,-223 322,-223 322,-8 8,-8"/>
<text text-anchor="middle" x="49.38" y="-205.7" font-family="Times,serif" font-size="14.00">Kernelspace</text>
</g>
<g id="clust2" class="cluster">
<title>cluster_AA</title>
<polygon fill="none" stroke="none" points="52,-149 52,-190.5 136,-190.5 136,-149 52,-149"/>
</g>
<g id="clust3" class="cluster">
<title>cluster_AB</title>
<polygon fill="none" stroke="none" points="16,-82.5 16,-129 249,-129 249,-82.5 16,-82.5"/>
</g>
<g id="clust4" class="cluster">
<title>cluster_AC</title>
<polygon fill="none" stroke="none" points="16,-16 16,-62.5 314,-62.5 314,-16 16,-16"/>
</g>
<g id="clust5" class="cluster">
<title>cluster_B</title>
<polygon fill="none" stroke="black" points="138,-231 138,-297 352,-297 352,-231 138,-231"/>
<text text-anchor="middle" x="173.75" y="-279.7" font-family="Times,serif" font-size="14.00">Userspace</text>
</g>
<!-- tc ingress -->
<g id="node1" class="node">
<title>tc ingress</title>
<polygon fill="none" stroke="black" points="60.12,-157.5 60.12,-182 127.88,-182 127.88,-157.5 60.12,-157.5"/>
<text text-anchor="middle" x="94" y="-164.7" font-family="Times,serif" font-size="14.00">tc ingress</text>
</g>
<!-- p1 -->
<g id="node2" class="node">
<title>p1</title>
<polygon fill="none" stroke="black" points="32.38,-94.5 32.38,-117 102.88,-117 102.88,-94.5 32.38,-94.5"/>
<text text-anchor="start" x="35.38" y="-100.7" font-family="Times,serif" font-size="14.00">program P1</text>
<polygon fill="#bfefff" stroke="none" points="102.88,-94.5 102.88,-117 115.62,-117 115.62,-94.5 102.88,-94.5"/>
<polygon fill="none" stroke="black" points="102.88,-94.5 102.88,-117 115.62,-117 115.62,-94.5 102.88,-94.5"/>
<text text-anchor="start" x="105.88" y="-100.7" font-family="Times,serif" font-size="14.00">1</text>
</g>
<!-- tc ingress&#45;&gt;p1 -->
<g id="edge1" class="edge">
<title>tc ingress&#45;&gt;p1</title>
<path fill="none" stroke="black" d="M90.42,-157.67C88.03,-150.26 84.79,-140.21 81.82,-131"/>
<polygon fill="black" stroke="black" points="84.93,-130.23 78.53,-121.78 78.27,-132.38 84.93,-130.23"/>
</g>
<!-- m1 -->
<g id="node4" class="node">
<title>m1</title>
<polygon fill="none" stroke="black" points="32,-28 32,-50.5 85.25,-50.5 85.25,-28 32,-28"/>
<text text-anchor="start" x="35" y="-34.2" font-family="Times,serif" font-size="14.00">map M1</text>
<polygon fill="#bfefff" stroke="none" points="85.25,-28 85.25,-50.5 98,-50.5 98,-28 85.25,-28"/>
<polygon fill="none" stroke="black" points="85.25,-28 85.25,-50.5 98,-50.5 98,-28 85.25,-28"/>
<text text-anchor="start" x="88.25" y="-34.2" font-family="Times,serif" font-size="14.00">1</text>
</g>
<!-- p1&#45;&gt;m1 -->
<g id="edge2" class="edge">
<title>p1&#45;&gt;m1</title>
<path fill="none" stroke="black" d="M72.05,-90.75C71,-83.23 69.67,-73.73 68.45,-65.01"/>
<polygon fill="black" stroke="black" points="71.8,-64.64 66.95,-55.22 64.86,-65.61 71.8,-64.64"/>
</g>
<!-- m2 -->
<g id="node5" class="node">
<title>m2</title>
<polygon fill="none" stroke="black" points="132,-28 132,-50.5 185.25,-50.5 185.25,-28 132,-28"/>
<text text-anchor="start" x="135" y="-34.2" font-family="Times,serif" font-size="14.00">map M2</text>
<polygon fill="#bfefff" stroke="none" points="185.25,-28 185.25,-50.5 198,-50.5 198,-28 185.25,-28"/>
<polygon fill="none" stroke="black" points="185.25,-28 185.25,-50.5 198,-50.5 198,-28 185.25,-28"/>
<text text-anchor="start" x="188.25" y="-34.2" font-family="Times,serif" font-size="14.00">3</text>
</g>
<!-- p1&#45;&gt;m2 -->
<g id="edge3" class="edge">
<title>p1&#45;&gt;m2</title>
<path fill="none" stroke="black" d="M93.75,-90.75C106.18,-81.94 122.44,-70.41 136.29,-60.6"/>
<polygon fill="black" stroke="black" points="137.84,-63.08 143.98,-54.44 133.8,-57.37 137.84,-63.08"/>
</g>
<!-- p2 -->
<g id="node3" class="node">
<title>p2</title>
<polygon fill="none" stroke="black" points="149.38,-94.5 149.38,-117 219.88,-117 219.88,-94.5 149.38,-94.5"/>
<text text-anchor="start" x="152.38" y="-100.7" font-family="Times,serif" font-size="14.00">program P2</text>
<polygon fill="#bfefff" stroke="none" points="219.88,-94.5 219.88,-117 232.62,-117 232.62,-94.5 219.88,-94.5"/>
<polygon fill="none" stroke="black" points="219.88,-94.5 219.88,-117 232.62,-117 232.62,-94.5 219.88,-94.5"/>
<text text-anchor="start" x="222.88" y="-100.7" font-family="Times,serif" font-size="14.00">1</text>
</g>
<!-- p2&#45;&gt;m2 -->
<g id="edge4" class="edge">
<title>p2&#45;&gt;m2</title>
<path fill="none" stroke="black" d="M185.36,-90.75C182.22,-82.98 178.24,-73.09 174.63,-64.13"/>
<polygon fill="black" stroke="black" points="177.62,-63.18 170.63,-55.22 171.12,-65.8 177.62,-63.18"/>
</g>
<!-- m3 -->
<g id="node6" class="node">
<title>m3</title>
<polygon fill="none" stroke="black" points="232,-28 232,-50.5 285.25,-50.5 285.25,-28 232,-28"/>
<text text-anchor="start" x="235" y="-34.2" font-family="Times,serif" font-size="14.00">map M3</text>
<polygon fill="lightcoral" stroke="none" points="285.25,-28 285.25,-50.5 298,-50.5 298,-28 285.25,-28"/>
<polygon fill="none" stroke="black" points="285.25,-28 285.25,-50.5 298,-50.5 298,-28 285.25,-28"/>
<text text-anchor="start" x="288.25" y="-34.2" font-family="Times,serif" font-size="14.00">1</text>
</g>
<!-- fd1 -->
<g id="node7" class="node">
<title>fd1</title>
<polygon fill="none" stroke="black" points="146,-239.5 146,-264 200,-264 200,-239.5 146,-239.5"/>
<text text-anchor="middle" x="172.88" y="-246.7" font-family="Times,serif" font-size="14.00">fd 1</text>
</g>
<!-- fd1&#45;&gt;tc ingress -->
<!-- fd1&#45;&gt;p2 -->
<g id="edge5" class="edge">
<title>fd1&#45;&gt;p2</title>
<path fill="none" stroke="black" d="M174.35,-239.93C177.22,-216.97 183.98,-162.93 187.95,-131.19"/>
<polygon fill="black" stroke="black" points="191.5,-131.96 189.27,-121.6 184.55,-131.09 191.5,-131.96"/>
</g>
<!-- fd3 -->
<g id="node8" class="node">
<title>fd3</title>
<polygon fill="none" stroke="black" points="218,-239.5 218,-264 272,-264 272,-239.5 218,-239.5"/>
<text text-anchor="middle" x="244.88" y="-246.7" font-family="Times,serif" font-size="14.00">fd 3</text>
</g>
<!-- fd3&#45;&gt;m2 -->
<g id="edge6" class="edge">
<title>fd3&#45;&gt;m2</title>
<path fill="none" stroke="black" d="M249.47,-239.84C260.35,-211.36 285.08,-133.49 253,-82.5 251.52,-80.14 228.33,-69.05 206.13,-58.83"/>
<polygon fill="black" stroke="black" points="207.96,-55.36 197.41,-54.38 205.04,-61.72 207.96,-55.36"/>
</g>
<!-- fd4 -->
<g id="node9" class="node">
<title>fd4</title>
<polygon fill="none" stroke="black" points="290,-239.5 290,-264 344,-264 344,-239.5 290,-239.5"/>
<text text-anchor="middle" x="316.88" y="-246.7" font-family="Times,serif" font-size="14.00">fd 4</text>
</g>
<!-- fd4&#45;&gt;m3 -->
<g id="edge7" class="edge">
<title>fd4&#45;&gt;m3</title>
<path fill="none" stroke="black" d="M315.54,-239.53C311.81,-212.22 300.94,-140.27 283,-82.5 281.14,-76.5 278.72,-70.2 276.26,-64.34"/>
<polygon fill="black" stroke="black" points="279.14,-63.19 271.91,-55.45 272.73,-66.01 279.14,-63.19"/>
</g>
</g>
</svg>
