<?xml version="1.0" encoding="UTF-8" standalone="no"?>
<!DOCTYPE svg PUBLIC "-//W3C//DTD SVG 1.1//EN"
 "http://www.w3.org/Graphics/SVG/1.1/DTD/svg11.dtd">
<!-- Generated by graphviz version 8.0.5 (0)
 -->
<!-- Title: F Pages: 1 -->
<svg width="475pt" height="313pt"
 viewBox="0.00 0.00 475.00 313.00" xmlns="http://www.w3.org/2000/svg" xmlns:xlink="http://www.w3.org/1999/xlink">
<g id="graph0" class="graph" transform="scale(1 1) rotate(0) translate(4 309)">
<title>F</title>
<polygon fill="white" stroke="none" points="-4,4 -4,-309 471,-309 471,4 -4,4"/>
<g id="clust1" class="cluster">
<title>cluster_A</title>
<polygon fill="none" stroke="black" points="8,-8 8,-223 374,-223 374,-8 8,-8"/>
<text text-anchor="middle" x="49.38" y="-205.7" font-family="Times,serif" font-size="14.00">Kernelspace</text>
</g>
<g id="clust2" class="cluster">
<title>cluster_AA</title>
<polygon fill="none" stroke="none" points="59,-149 59,-190.5 143,-190.5 143,-149 59,-149"/>
</g>
<g id="clust3" class="cluster">
<title>cluster_AB</title>
<polygon fill="none" stroke="none" points="16,-82.5 16,-129 366,-129 366,-82.5 16,-82.5"/>
</g>
<g id="clust4" class="cluster">
<title>cluster_AC</title>
<polygon fill="none" stroke="none" points="50,-16 50,-62.5 348,-62.5 348,-16 50,-16"/>
</g>
<g id="clust5" class="cluster">
<title>cluster_B</title>
<polygon fill="none" stroke="black" points="173,-231 173,-297 459,-297 459,-231 173,-231"/>
<text text-anchor="middle" x="208.75" y="-279.7" font-family="Times,serif" font-size="14.00">Userspace</text>
</g>
<!-- tc ingress -->
<g id="node1" class="node">
<title>tc ingress</title>
<polygon fill="none" stroke="black" points="67.12,-157.5 67.12,-182 134.88,-182 134.88,-157.5 67.12,-157.5"/>
<text text-anchor="middle" x="101" y="-164.7" font-family="Times,serif" font-size="14.00">tc ingress</text>
</g>
<!-- p1 -->
<g id="node2" class="node">
<title>p1</title>
<polygon fill="none" stroke="black" points="32.38,-94.5 32.38,-117 102.88,-117 102.88,-94.5 32.38,-94.5"/>
<text text-anchor="start" x="35.38" y="-100.7" font-family="Times,serif" font-size="14.00">program P1</text>
<polygon fill="#bfefff" stroke="none" points="102.88,-94.5 102.88,-117 115.62,-117 115.62,-94.5 102.88,-94.5"/>
<polygon fill="none" stroke="black" points="102.88,-94.5 102.88,-117 115.62,-117 115.62,-94.5 102.88,-94.5"/>
<text text-anchor="start" x="105.88" y="-100.7" font-family="Times,serif" font-size="14.00">1</text>
</g>
<!-- tc ingress&#45;&gt;p1 -->
<g id="edge1" class="edge">
<title>tc ingress&#45;&gt;p1</title>
<path fill="none" stroke="black" d="M96.17,-157.67C92.91,-150.17 88.48,-139.99 84.43,-130.7"/>
<polygon fill="black" stroke="black" points="87.31,-129.56 80.11,-121.78 80.9,-132.35 87.31,-129.56"/>
</g>
<!-- m1 -->
<g id="node5" class="node">
<title>m1</title>
<polygon fill="none" stroke="black" points="66,-28 66,-50.5 119.25,-50.5 119.25,-28 66,-28"/>
<text text-anchor="start" x="69" y="-34.2" font-family="Times,serif" font-size="14.00">map M1</text>
<polygon fill="#bfefff" stroke="none" points="119.25,-28 119.25,-50.5 132,-50.5 132,-28 119.25,-28"/>
<polygon fill="none" stroke="black" points="119.25,-28 119.25,-50.5 132,-50.5 132,-28 119.25,-28"/>
<text text-anchor="start" x="122.25" y="-34.2" font-family="Times,serif" font-size="14.00">1</text>
</g>
<!-- p1&#45;&gt;m1 -->
<g id="edge2" class="edge">
<title>p1&#45;&gt;m1</title>
<path fill="none" stroke="black" d="M79.42,-90.75C82.41,-83.06 86.19,-73.31 89.63,-64.42"/>
<polygon fill="black" stroke="black" points="93.24,-65.81 93.59,-55.22 86.71,-63.28 93.24,-65.81"/>
</g>
<!-- m2 -->
<g id="node6" class="node">
<title>m2</title>
<polygon fill="none" stroke="black" points="166,-28 166,-50.5 219.25,-50.5 219.25,-28 166,-28"/>
<text text-anchor="start" x="169" y="-34.2" font-family="Times,serif" font-size="14.00">map M2</text>
<polygon fill="#bfefff" stroke="none" points="219.25,-28 219.25,-50.5 232,-50.5 232,-28 219.25,-28"/>
<polygon fill="none" stroke="black" points="219.25,-28 219.25,-50.5 232,-50.5 232,-28 219.25,-28"/>
<text text-anchor="start" x="222.25" y="-34.2" font-family="Times,serif" font-size="14.00">3</text>
</g>
<!-- p1&#45;&gt;m2 -->
<g id="edge3" class="edge">
<title>p1&#45;&gt;m2</title>
<path fill="none" stroke="black" d="M101.43,-90.6C119.18,-81.44 142.51,-69.4 161.9,-59.39"/>
<polygon fill="black" stroke="black" points="163.35,-62.07 170.63,-54.37 160.14,-55.85 163.35,-62.07"/>
</g>
<!-- p2 -->
<g id="node3" class="node">
<title>p2</title>
<polygon fill="none" stroke="black" points="149.38,-94.5 149.38,-117 219.88,-117 219.88,-94.5 149.38,-94.5"/>
<text text-anchor="start" x="152.38" y="-100.7" font-family="Times,serif" font-size="14.00">program P2</text>
<polygon fill="#bfefff" stroke="none" points="219.88,-94.5 219.88,-117 232.62,-117 232.62,-94.5 219.88,-94.5"/>
<polygon fill="none" stroke="black" points="219.88,-94.5 219.88,-117 232.62,-117 232.62,-94.5 219.88,-94.5"/>
<text text-anchor="start" x="222.88" y="-100.7" font-family="Times,serif" font-size="14.00">1</text>
</g>
<!-- p2&#45;&gt;m2 -->
<g id="edge4" class="edge">
<title>p2&#45;&gt;m2</title>
<path fill="none" stroke="black" d="M192.74,-90.75C193.67,-83.23 194.85,-73.73 195.93,-65.01"/>
<polygon fill="black" stroke="black" points="199.51,-65.57 197.27,-55.22 192.56,-64.71 199.51,-65.57"/>
</g>
<!-- p3 -->
<g id="node4" class="node">
<title>p3</title>
<polygon fill="none" stroke="black" points="266.38,-94.5 266.38,-117 336.88,-117 336.88,-94.5 266.38,-94.5"/>
<text text-anchor="start" x="269.38" y="-100.7" font-family="Times,serif" font-size="14.00">program P3</text>
<polygon fill="#bfefff" stroke="none" points="336.88,-94.5 336.88,-117 349.62,-117 349.62,-94.5 336.88,-94.5"/>
<polygon fill="none" stroke="black" points="336.88,-94.5 336.88,-117 349.62,-117 349.62,-94.5 336.88,-94.5"/>
<text text-anchor="start" x="339.88" y="-100.7" font-family="Times,serif" font-size="14.00">1</text>
</g>
<!-- m3 -->
<g id="node7" class="node">
<title>m3</title>
<polygon fill="none" stroke="black" points="266,-28 266,-50.5 319.25,-50.5 319.25,-28 266,-28"/>
<text text-anchor="start" x="269" y="-34.2" font-family="Times,serif" font-size="14.00">map M3</text>
<polygon fill="#bfefff" stroke="none" points="319.25,-28 319.25,-50.5 332,-50.5 332,-28 319.25,-28"/>
<polygon fill="none" stroke="black" points="319.25,-28 319.25,-50.5 332,-50.5 332,-28 319.25,-28"/>
<text text-anchor="start" x="322.25" y="-34.2" font-family="Times,serif" font-size="14.00">2</text>
</g>
<!-- p3&#45;&gt;m3 -->
<g id="edge5" class="edge">
<title>p3&#45;&gt;m3</title>
<path fill="none" stroke="black" d="M306.05,-90.75C305,-83.23 303.67,-73.73 302.45,-65.01"/>
<polygon fill="black" stroke="black" points="305.8,-64.64 300.95,-55.22 298.86,-65.61 305.8,-64.64"/>
</g>
<!-- fd1 -->
<g id="node8" class="node">
<title>fd1</title>
<polygon fill="none" stroke="black" points="181,-239.5 181,-264 235,-264 235,-239.5 181,-239.5"/>
<text text-anchor="middle" x="207.88" y="-246.7" font-family="Times,serif" font-size="14.00">fd 1</text>
</g>
<!-- fd1&#45;&gt;tc ingress -->
<!-- fd1&#45;&gt;p2 -->
<g id="edge6" class="edge">
<title>fd1&#45;&gt;p2</title>
<path fill="none" stroke="black" d="M206.72,-239.93C204.01,-216.97 197.63,-162.93 193.89,-131.19"/>
<polygon fill="black" stroke="black" points="197.28,-131.12 192.64,-121.6 190.33,-131.95 197.28,-131.12"/>
</g>
<!-- fd2 -->
<g id="node9" class="node">
<title>fd2</title>
<polygon fill="none" stroke="black" points="253,-239.5 253,-264 307,-264 307,-239.5 253,-239.5"/>
<text text-anchor="middle" x="279.88" y="-246.7" font-family="Times,serif" font-size="14.00">fd 2</text>
</g>
<!-- fd2&#45;&gt;p3 -->
<g id="edge7" class="edge">
<title>fd2&#45;&gt;p3</title>
<path fill="none" stroke="black" d="M282.1,-239.93C286.57,-216.97 297.08,-162.93 303.25,-131.19"/>
<polygon fill="black" stroke="black" points="306.83,-132.09 305.31,-121.6 299.96,-130.75 306.83,-132.09"/>
</g>
<!-- fd3 -->
<g id="node10" class="node">
<title>fd3</title>
<polygon fill="none" stroke="black" points="325,-239.5 325,-264 379,-264 379,-239.5 325,-239.5"/>
<text text-anchor="middle" x="351.88" y="-246.7" font-family="Times,serif" font-size="14.00">fd 3</text>
</g>
<!-- fd3&#45;&gt;m2 -->
<g id="edge8" class="edge">
<title>fd3&#45;&gt;m2</title>
<path fill="none" stroke="black" d="M358.05,-239.71C373.29,-210.26 409.34,-128.87 370,-82.5 352.37,-61.72 275.11,-70.33 249,-62.5 245.23,-61.37 241.37,-60.02 237.55,-58.56"/>
<polygon fill="black" stroke="black" points="239.19,-55.04 228.61,-54.48 236.53,-61.51 239.19,-55.04"/>
</g>
<!-- fd4 -->
<g id="node11" class="node">
<title>fd4</title>
<polygon fill="none" stroke="black" points="397,-239.5 397,-264 451,-264 451,-239.5 397,-239.5"/>
<text text-anchor="middle" x="423.88" y="-246.7" font-family="Times,serif" font-size="14.00">fd 4</text>
</g>
<!-- fd4&#45;&gt;m3 -->
<g id="edge9" class="edge">
<title>fd4&#45;&gt;m3</title>
<path fill="none" stroke="black" d="M425.87,-239.51C430.06,-210.23 437.18,-130.59 400,-82.5 387.8,-66.71 368.62,-56.77 350.23,-50.53"/>
<polygon fill="black" stroke="black" points="351.45,-46.94 340.86,-47.35 349.39,-53.63 351.45,-46.94"/>
</g>
</g>
</svg>
