<svg class="bob" font-family="arial" font-size="14" height="256" width="664" xmlns="http://www.w3.org/2000/svg">
<defs>
<marker id="triangle" markerHeight="8" markerWidth="8" orient="auto" refX="4" refY="2" viewBox="0 0 8 4">
<polygon class="fg_fill" points="0,0 0,4 8,2 0,0"/>
</marker>
<marker id="clear_triangle" markerHeight="10" markerWidth="10" orient="auto" refX="1" refY="7" viewBox="0 0 20 14">
<polygon class="bg_fill" points="2,2 2,12 18,7 2,2"/>
</marker>
<marker id="circle" markerHeight="5" markerWidth="5" orient="auto" refX="10" refY="10" viewBox="0 0 20 20">
<circle class="fg_fill" cx="10" cy="10" r="8"/>
</marker>
<marker id="square" markerHeight="5" markerWidth="5" orient="auto" refX="10" refY="10" viewBox="0 0 20 20">
<rect class="fg_fill" height="20" width="20" x="0" y="0"/>
</marker>
<marker id="open_circle" markerHeight="10" markerWidth="10" orient="auto" refX="10" refY="10" viewBox="0 0 20 20">
<circle class="bg_fill" cx="10" cy="10" r="4"/>
</marker>
<marker id="big_open_circle" markerHeight="20" markerWidth="20" orient="auto" refX="20" refY="20" viewBox="0 0 40 40">
<circle class="bg_fill" cx="20" cy="20" r="6"/>
</marker>
</defs>
<style type="text/css">

rect.backdrop {
    fill: white;
}
text{
    fill: black;
}

circle {
    fill: none;
    stroke: black;
    stroke-width: 2;
}

line {
    stroke: black;
    stroke-width: 2;
    stroke-opacity: 1;
    fill-opacity: 1;
    stroke-linecap: round;
    stroke-linejoin: miter;
}

path {
    fill: none;
    stroke: black;
    stroke-width: 2;
    stroke-opacity: 1;
    fill-opacity: 1;
    stroke-linecap: round;
    stroke-linejoin: miter;
}

line.dashed {
    stroke-dasharray: 5;
}

.fg_fill {
    fill: black;
}


.bg_fill {
    fill: white;
    stroke: black;
    stroke-width: 2;
}

tspan.head{
    fill: none;
    stroke: none;
}
    
</style>
<rect class="backdrop" height="256" width="664" x="0" y="0"/>
<g>
<line x1="12" x2="12" y1="44" y2="48"/>
<line class="dashed" x1="12" x2="12" y1="48" y2="240"/>
<path d="M 16 40 A 4 4 0 0 0 12 44"/>
</g>
<g>
<line x1="12" x2="12" y1="244" y2="240"/>
<path d="M 12 244 A 4 4 0 0 0 16 248"/>
</g>
<g>
<line x1="36" x2="36" y1="156" y2="228"/>
<path d="M 36 228 A 4 4 0 0 0 40 232"/>
<path d="M 40 152 A 4 4 0 0 0 36 156"/>
</g>
<g>
<line x1="40" x2="128" y1="152" y2="152"/>
<path d="M 132 156 A 4 4 0 0 0 128 152"/>
</g>
<g>
<line x1="40" x2="128" y1="232" y2="232"/>
<path d="M 128 232 A 4 4 0 0 0 132 228"/>
</g>
<g>
<line x1="132" x2="132" y1="156" y2="228"/>
</g>
<g>
<line x1="144" x2="164" y1="184" y2="184"/>
<line x1="164" x2="164" y1="184" y2="176"/>
<line x1="164" x2="164" y1="184" y2="192"/>
<line x1="164" x2="180" y1="184" y2="184"/>
<line x1="180" x2="180" y1="184" y2="176"/>
<line x1="180" x2="180" y1="184" y2="192"/>
<line marker-end="url(#triangle)" x1="180" x2="204" y1="184" y2="184"/>
<line class="dashed" x1="164" x2="164" y1="48" y2="176"/>
<line class="dashed" x1="164" x2="164" y1="192" y2="240"/>
<line class="dashed" x1="180" x2="180" y1="48" y2="176"/>
<line class="dashed" x1="180" x2="180" y1="192" y2="240"/>
</g>
<g>
<line x1="164" x2="164" y1="44" y2="48"/>
<path d="M 164 44 A 4 4 0 0 0 160 40"/>
</g>
<g>
<line x1="164" x2="164" y1="244" y2="240"/>
<path d="M 160 248 A 4 4 0 0 0 164 244"/>
</g>
<g>
<line x1="180" x2="180" y1="44" y2="48"/>
<path d="M 184 40 A 4 4 0 0 0 180 44"/>
</g>
<g>
<line x1="180" x2="180" y1="244" y2="240"/>
<path d="M 180 244 A 4 4 0 0 0 184 248"/>
</g>
<g>
<line x1="220" x2="220" y1="156" y2="212"/>
<path d="M 220 212 A 4 4 0 0 0 224 216"/>
<path d="M 224 152 A 4 4 0 0 0 220 156"/>
</g>
<g>
<line x1="224" x2="312" y1="152" y2="152"/>
<path d="M 316 156 A 4 4 0 0 0 312 152"/>
</g>
<g>
<line x1="224" x2="312" y1="216" y2="216"/>
<path d="M 312 216 A 4 4 0 0 0 316 212"/>
</g>
<g>
<line marker-end="url(#triangle)" x1="268" x2="268" y1="112" y2="140"/>
</g>
<g>
<line x1="316" x2="316" y1="156" y2="212"/>
</g>
<g>
<line marker-end="url(#triangle)" x1="328" x2="372" y1="184" y2="184"/>
</g>
<g>
<line x1="388" x2="388" y1="156" y2="228"/>
<path d="M 388 228 A 4 4 0 0 0 392 232"/>
<path d="M 392 152 A 4 4 0 0 0 388 156"/>
</g>
<g>
<line x1="392" x2="472" y1="152" y2="152"/>
<path d="M 476 156 A 4 4 0 0 0 472 152"/>
</g>
<g>
<line x1="392" x2="472" y1="232" y2="232"/>
<path d="M 472 232 A 4 4 0 0 0 476 228"/>
</g>
<g>
<line marker-end="url(#triangle)" x1="428" x2="428" y1="112" y2="140"/>
</g>
<g>
<line x1="476" x2="476" y1="156" y2="228"/>
</g>
<g>
<line marker-end="url(#triangle)" x1="488" x2="532" y1="184" y2="184"/>
</g>
<g>
<line x1="548" x2="548" y1="156" y2="212"/>
<path d="M 548 212 A 4 4 0 0 0 552 216"/>
<path d="M 552 152 A 4 4 0 0 0 548 156"/>
</g>
<g>
<line x1="552" x2="632" y1="152" y2="152"/>
<path d="M 636 156 A 4 4 0 0 0 632 152"/>
</g>
<g>
<line x1="552" x2="632" y1="216" y2="216"/>
<path d="M 632 216 A 4 4 0 0 0 636 212"/>
</g>
<g>
<line x1="636" x2="636" y1="156" y2="212"/>
</g>
<g>
<line x1="660" x2="660" y1="44" y2="48"/>
<line class="dashed" x1="660" x2="660" y1="48" y2="240"/>
<path d="M 660 44 A 4 4 0 0 0 656 40"/>
</g>
<g>
<line x1="660" x2="660" y1="244" y2="240"/>
<path d="M 656 248 A 4 4 0 0 0 660 244"/>
</g>
<g>
<line class="dashed" x1="16" x2="160" y1="40" y2="40"/>
</g>
<g>
<line class="dashed" x1="16" x2="160" y1="248" y2="248"/>
</g>
<g>
<line class="dashed" x1="184" x2="656" y1="40" y2="40"/>
</g>
<g>
<line class="dashed" x1="184" x2="656" y1="248" y2="248"/>
</g>
<g>
<text x="17" y="28">
Development host
</text>
</g>
<g>
<text x="65" y="188">
app.py
</text>
</g>
<g>
<text x="65" y="204">
bpf.c
</text>
</g>
<g>
<text x="233" y="76">
libbcc.so
</text>
</g>
<g>
<text x="233" y="108">
libelf.so
</text>
</g>
<g>
<text x="241" y="60">
python
</text>
</g>
<g>
<text x="241" y="92">
libz.so
</text>
</g>
<g>
<text x="257" y="188">
bcc
</text>
</g>
<g>
<text x="353" y="28">
Production host
</text>
</g>
<g>
<text x="393" y="92">
libclang.so
</text>
</g>
<g>
<text x="393" y="108">
libllvm.a
</text>
</g>
<g>
<text x="409" y="188">
clang/
</text>
</g>
<g>
<text x="409" y="204">
llvm
</text>
</g>
<g>
<text x="569" y="188">
kernel
</text>
</g>
</svg>
