<svg class="bob" font-family="arial" font-size="14" height="272" width="752" xmlns="http://www.w3.org/2000/svg">
<defs>
<marker id="triangle" markerHeight="8" markerWidth="8" orient="auto" refX="4" refY="2" viewBox="0 0 8 4">
<polygon class="fg_fill" points="0,0 0,4 8,2 0,0"/>
</marker>
<marker id="clear_triangle" markerHeight="10" markerWidth="10" orient="auto" refX="1" refY="7" viewBox="0 0 20 14">
<polygon class="bg_fill" points="2,2 2,12 18,7 2,2"/>
</marker>
<marker id="circle" markerHeight="5" markerWidth="5" orient="auto" refX="10" refY="10" viewBox="0 0 20 20">
<circle class="fg_fill" cx="10" cy="10" r="8"/>
</marker>
<marker id="square" markerHeight="5" markerWidth="5" orient="auto" refX="10" refY="10" viewBox="0 0 20 20">
<rect class="fg_fill" height="20" width="20" x="0" y="0"/>
</marker>
<marker id="open_circle" markerHeight="10" markerWidth="10" orient="auto" refX="10" refY="10" viewBox="0 0 20 20">
<circle class="bg_fill" cx="10" cy="10" r="4"/>
</marker>
<marker id="big_open_circle" markerHeight="20" markerWidth="20" orient="auto" refX="20" refY="20" viewBox="0 0 40 40">
<circle class="bg_fill" cx="20" cy="20" r="6"/>
</marker>
</defs>
<style type="text/css">

rect.backdrop {
    fill: white;
}
text{
    fill: black;
}

circle {
    fill: none;
    stroke: black;
    stroke-width: 2;
}

line {
    stroke: black;
    stroke-width: 2;
    stroke-opacity: 1;
    fill-opacity: 1;
    stroke-linecap: round;
    stroke-linejoin: miter;
}

path {
    fill: none;
    stroke: black;
    stroke-width: 2;
    stroke-opacity: 1;
    fill-opacity: 1;
    stroke-linecap: round;
    stroke-linejoin: miter;
}

line.dashed {
    stroke-dasharray: 5;
}

.fg_fill {
    fill: black;
}


.bg_fill {
    fill: white;
    stroke: black;
    stroke-width: 2;
}

tspan.head{
    fill: none;
    stroke: none;
}
    
</style>
<rect class="backdrop" height="272" width="752" x="0" y="0"/>
<g>
<line x1="12" x2="12" y1="44" y2="48"/>
<line class="dashed" x1="12" x2="12" y1="48" y2="256"/>
<path d="M 16 40 A 4 4 0 0 0 12 44"/>
</g>
<g>
<line x1="12" x2="12" y1="260" y2="256"/>
<path d="M 12 260 A 4 4 0 0 0 16 264"/>
</g>
<g>
<line x1="36" x2="36" y1="108" y2="180"/>
<path d="M 36 180 A 4 4 0 0 0 40 184"/>
<path d="M 40 104 A 4 4 0 0 0 36 108"/>
</g>
<g>
<line x1="40" x2="104" y1="104" y2="104"/>
<path d="M 108 108 A 4 4 0 0 0 104 104"/>
</g>
<g>
<line x1="40" x2="104" y1="184" y2="184"/>
<path d="M 104 184 A 4 4 0 0 0 108 180"/>
</g>
<g>
<line x1="108" x2="108" y1="108" y2="180"/>
</g>
<g>
<line x1="120" x2="148" y1="152" y2="152"/>
<line x1="148" x2="178" y1="152" y2="212"/>
<line x1="178" x2="148" y1="92" y2="152"/>
<path d="M 178 212 A 8 8 0 0 0 184 216"/>
<path d="M 184 88 A 8 8 0 0 0 178 92"/>
</g>
<g>
<line marker-end="url(#triangle)" x1="184" x2="212" y1="88" y2="88"/>
</g>
<g>
<line marker-end="url(#triangle)" x1="184" x2="212" y1="216" y2="216"/>
</g>
<g>
<line x1="228" x2="228" y1="60" y2="116"/>
<path d="M 228 116 A 4 4 0 0 0 232 120"/>
<path d="M 232 56 A 4 4 0 0 0 228 60"/>
</g>
<g>
<line x1="228" x2="228" y1="188" y2="244"/>
<path d="M 228 244 A 4 4 0 0 0 232 248"/>
<path d="M 232 184 A 4 4 0 0 0 228 188"/>
</g>
<g>
<line x1="232" x2="288" y1="56" y2="56"/>
<path d="M 292 60 A 4 4 0 0 0 288 56"/>
</g>
<g>
<line x1="232" x2="288" y1="120" y2="120"/>
<path d="M 288 120 A 4 4 0 0 0 292 116"/>
</g>
<g>
<line x1="232" x2="288" y1="184" y2="184"/>
<path d="M 292 188 A 4 4 0 0 0 288 184"/>
</g>
<g>
<line x1="232" x2="288" y1="248" y2="248"/>
<path d="M 288 248 A 4 4 0 0 0 292 244"/>
</g>
<g>
<line x1="292" x2="292" y1="60" y2="116"/>
</g>
<g>
<line x1="292" x2="292" y1="188" y2="244"/>
</g>
<g>
<line x1="304" x2="328" y1="88" y2="88"/>
<path d="M 334 92 A 8 8 0 0 0 328 88"/>
</g>
<g>
<line x1="304" x2="328" y1="216" y2="216"/>
<path d="M 328 216 A 8 8 0 0 0 334 212"/>
</g>
<g>
<line x1="334" x2="364" y1="92" y2="152"/>
<line x1="364" x2="334" y1="152" y2="212"/>
<line marker-end="url(#triangle)" x1="364" x2="388" y1="152" y2="152"/>
</g>
<g>
<line x1="404" x2="404" y1="124" y2="180"/>
<path d="M 404 180 A 4 4 0 0 0 408 184"/>
<path d="M 408 120 A 4 4 0 0 0 404 124"/>
</g>
<g>
<line x1="408" x2="448" y1="120" y2="120"/>
<path d="M 452 124 A 4 4 0 0 0 448 120"/>
</g>
<g>
<line x1="408" x2="448" y1="184" y2="184"/>
<path d="M 448 184 A 4 4 0 0 0 452 180"/>
</g>
<g>
<line marker-end="url(#triangle)" x1="428" x2="428" y1="80" y2="108"/>
</g>
<g>
<line x1="452" x2="452" y1="124" y2="180"/>
</g>
<g>
<line x1="464" x2="476" y1="152" y2="152"/>
<line x1="476" x2="476" y1="152" y2="144"/>
<line x1="476" x2="476" y1="152" y2="160"/>
<line x1="476" x2="492" y1="152" y2="152"/>
<line x1="492" x2="492" y1="152" y2="144"/>
<line x1="492" x2="492" y1="152" y2="160"/>
<line marker-end="url(#triangle)" x1="492" x2="508" y1="152" y2="152"/>
<line class="dashed" x1="476" x2="476" y1="48" y2="144"/>
<line class="dashed" x1="476" x2="476" y1="160" y2="256"/>
<line class="dashed" x1="492" x2="492" y1="48" y2="144"/>
<line class="dashed" x1="492" x2="492" y1="160" y2="256"/>
</g>
<g>
<line x1="476" x2="476" y1="44" y2="48"/>
<path d="M 476 44 A 4 4 0 0 0 472 40"/>
</g>
<g>
<line x1="476" x2="476" y1="260" y2="256"/>
<path d="M 472 264 A 4 4 0 0 0 476 260"/>
</g>
<g>
<line x1="492" x2="492" y1="44" y2="48"/>
<path d="M 496 40 A 4 4 0 0 0 492 44"/>
</g>
<g>
<line x1="492" x2="492" y1="260" y2="256"/>
<path d="M 492 260 A 4 4 0 0 0 496 264"/>
</g>
<g>
<line x1="524" x2="524" y1="124" y2="180"/>
<path d="M 524 180 A 4 4 0 0 0 528 184"/>
<path d="M 528 120 A 4 4 0 0 0 524 124"/>
</g>
<g>
<line x1="528" x2="592" y1="120" y2="120"/>
<path d="M 596 124 A 4 4 0 0 0 592 120"/>
</g>
<g>
<line x1="528" x2="592" y1="184" y2="184"/>
<path d="M 592 184 A 4 4 0 0 0 596 180"/>
</g>
<g>
<line marker-end="url(#triangle)" x1="556" x2="556" y1="80" y2="108"/>
</g>
<g>
<line x1="596" x2="596" y1="124" y2="180"/>
</g>
<g>
<line marker-end="url(#triangle)" x1="608" x2="636" y1="152" y2="152"/>
</g>
<g>
<line x1="652" x2="652" y1="124" y2="180"/>
<path d="M 652 180 A 4 4 0 0 0 656 184"/>
<path d="M 656 120 A 4 4 0 0 0 652 124"/>
</g>
<g>
<line x1="656" x2="720" y1="120" y2="120"/>
<path d="M 724 124 A 4 4 0 0 0 720 120"/>
</g>
<g>
<line x1="656" x2="720" y1="184" y2="184"/>
<path d="M 720 184 A 4 4 0 0 0 724 180"/>
</g>
<g>
<line x1="724" x2="724" y1="124" y2="180"/>
</g>
<g>
<line x1="748" x2="748" y1="44" y2="48"/>
<line class="dashed" x1="748" x2="748" y1="48" y2="256"/>
<path d="M 748 44 A 4 4 0 0 0 744 40"/>
</g>
<g>
<line x1="748" x2="748" y1="260" y2="256"/>
<path d="M 744 264 A 4 4 0 0 0 748 260"/>
</g>
<g>
<line class="dashed" x1="16" x2="472" y1="40" y2="40"/>
</g>
<g>
<line class="dashed" x1="16" x2="472" y1="264" y2="264"/>
</g>
<g>
<line class="dashed" x1="496" x2="744" y1="40" y2="40"/>
</g>
<g>
<line class="dashed" x1="496" x2="744" y1="264" y2="264"/>
</g>
<g>
<text x="49" y="140">
app.rs
</text>
</g>
<g>
<text x="49" y="156">
bpf.c
</text>
</g>
<g>
<text x="177" y="28">
Development host
</text>
</g>
<g>
<text x="241" y="92">
rustc
</text>
</g>
<g>
<text x="241" y="220">
clang
</text>
</g>
<g>
<text x="401" y="76">
libbpf.a
</text>
</g>
<g>
<text x="417" y="156">
app
</text>
</g>
<g>
<text x="521" y="60">
libelf.so
</text>
</g>
<g>
<text x="529" y="76">
libz.so
</text>
</g>
<g>
<text x="537" y="156">
libbpf
</text>
</g>
<g>
<text x="553" y="28">
Production host
</text>
</g>
<g>
<text x="665" y="156">
kernel
</text>
</g>
</svg>
